<svg xmlns="http://www.w3.org/2000/svg" viewBox="0 0 521.18 152" width="521.18" height="152"><title>Chaster logo, horizontal, standard wordmark, dark</title><rect width="521.18" height="152" fill="#0D0A1B"/><g transform="translate(28 28)"><g transform="translate(0 0) scale(1)"><path d="M19 0H19.04C25.519 0 28 2.481 28 8.96V19.04C28 25.519 25.519 28 19.04 28H8.96C2.481 28 0 25.519 0 19.04V19C0 8.506 8.506 0 19 0ZM42.96 0H53.04C59.519 0 62 2.481 62 8.96V19.04C62 25.519 59.519 28 53.04 28H42.96C36.481 28 34 25.519 34 19.04V8.96C34 2.481 36.481 0 42.96 0ZM8.96 34H19.04C25.519 34 28 36.481 28 42.96V53.04C28 59.519 25.519 62 19.04 62H8.96C2.481 62 0 59.519 0 53.04V42.96C0 36.481 2.481 34 8.96 34ZM8.96 68H19.04C25.519 68 28 70.481 28 76.96V87.04C28 93.519 25.519 96 19.04 96H19C8.506 96 0 87.494 0 77V76.96C0 70.481 2.481 68 8.96 68ZM42.96 68H53.04C59.519 68 62 70.481 62 76.96V87.04C62 93.519 59.519 96 53.04 96H42.96C36.481 96 34 93.519 34 87.04V76.96C34 70.481 36.481 68 42.96 68ZM76.96 68H87.04C93.519 68 96 70.481 96 76.96V87.04C96 93.519 93.519 96 87.04 96H76.96C70.481 96 68 93.519 68 87.04V76.96C68 70.481 70.481 68 76.96 68Z" fill="#FFFFFF"/><path d="M76.96 0H87.04C93.519 0 96 2.481 96 8.96V19.04C96 25.519 93.519 28 87.04 28H76.96C70.481 28 68 25.519 68 19.04V8.96C68 2.481 70.481 0 76.96 0Z" fill="#AB97FF" fill-rule="evenodd"/></g><g transform="translate(126.466 81.803) scale(1)"><path d="M35.38 1.52Q26.19 1.52 19.12 -2.69Q12.05 -6.91 8.07 -14.8Q4.09 -22.68 4.09 -33.71Q4.09 -44.54 7.98 -52.49Q11.86 -60.45 18.95 -64.79Q26.03 -69.13 35.54 -69.13Q48.47 -69.13 55.63 -62.71Q62.79 -56.29 64.92 -44.71L51.99 -44.11Q50.75 -50.77 46.66 -54.56Q42.56 -58.35 35.54 -58.35Q29.78 -58.35 25.6 -55.33Q21.42 -52.31 19.16 -46.78Q16.89 -41.25 16.89 -33.71Q16.89 -26.09 19.2 -20.61Q21.5 -15.12 25.68 -12.19Q29.86 -9.26 35.46 -9.26Q42.98 -9.26 47.11 -13.38Q51.25 -17.5 52.33 -24.72L65.3 -24.11Q63.99 -16.17 60.18 -10.44Q56.37 -4.7 50.15 -1.59Q43.93 1.52 35.38 1.52ZM71.64 0V-67.61H83.83V-39.21L82.27 -39.25Q83.07 -43.63 85.34 -46.43Q87.6 -49.23 90.95 -50.61Q94.31 -51.99 98.3 -51.99Q103.92 -51.99 107.74 -49.54Q111.56 -47.1 113.51 -42.72Q115.46 -38.35 115.46 -32.7V0H103.27V-29.69Q103.27 -35.92 101.21 -39Q99.14 -42.09 94.61 -42.09Q89.66 -42.09 86.74 -38.87Q83.83 -35.65 83.83 -29.4V0H71.64ZM139.08 1.14Q131.15 1.14 126.29 -2.51Q121.42 -6.17 121.42 -12.72Q121.42 -19.35 125.52 -23.04Q129.61 -26.74 137.93 -28.38L154.85 -31.67Q154.85 -37.1 152.36 -39.82Q149.88 -42.54 145.06 -42.54Q140.62 -42.54 138.09 -40.52Q135.55 -38.49 134.68 -34.64L122.28 -35.27Q123.75 -43.29 129.66 -47.64Q135.57 -51.99 145.06 -51.99Q155.91 -51.99 161.47 -46.53Q167.03 -41.08 167.03 -30.89V-12.36Q167.03 -10.34 167.73 -9.61Q168.42 -8.87 169.85 -8.87H171.47V0Q170.9 0.17 169.62 0.3Q168.35 0.42 167.05 0.42Q163.89 0.42 161.43 -0.62Q158.96 -1.66 157.59 -4.14Q156.22 -6.63 156.22 -11.01L157.32 -10.28Q156.5 -6.93 154.01 -4.33Q151.51 -1.73 147.69 -0.3Q143.86 1.14 139.08 1.14ZM141.59 -7.73Q145.65 -7.73 148.61 -9.32Q151.57 -10.91 153.21 -13.8Q154.85 -16.68 154.85 -20.53V-23.39L141.67 -20.72Q137.63 -19.92 135.83 -18.23Q134.03 -16.55 134.03 -13.86Q134.03 -10.95 136 -9.34Q137.97 -7.73 141.59 -7.73ZM196.19 1.14Q188.4 1.14 183.31 -1.07Q178.21 -3.28 175.57 -7.15Q172.94 -11.03 172.56 -16.02L185.01 -16.55Q185.7 -12.59 188.24 -10.37Q190.78 -8.15 196.23 -8.15Q200.49 -8.15 202.77 -9.55Q205.04 -10.95 205.04 -13.9Q205.04 -15.64 204.24 -16.78Q203.43 -17.92 201.08 -18.79Q198.74 -19.65 194.21 -20.45Q186.52 -21.82 182.15 -23.79Q177.79 -25.75 176.02 -28.7Q174.25 -31.65 174.25 -35.95Q174.25 -43.1 179.73 -47.54Q185.2 -51.99 195.79 -51.99Q203.14 -51.99 207.84 -49.68Q212.53 -47.36 214.95 -43.48Q217.37 -39.59 217.77 -34.89L205.43 -34.32Q205.31 -36.7 204.25 -38.6Q203.18 -40.51 201.08 -41.6Q198.99 -42.7 195.6 -42.7Q191.28 -42.7 189.07 -40.96Q186.86 -39.23 186.86 -36.41Q186.86 -34.36 187.74 -33.03Q188.63 -31.71 190.83 -30.88Q193.03 -30.05 196.8 -29.44Q204.65 -28.28 209.22 -26.3Q213.79 -24.32 215.72 -21.32Q217.65 -18.32 217.65 -14.05Q217.65 -6.76 211.82 -2.81Q205.98 1.14 196.19 1.14ZM242.49 0Q234.91 0 231.34 -3.5Q227.76 -7.01 227.76 -14.55V-62.77H239.95V-15.73Q239.95 -12.15 241.5 -10.8Q243.04 -9.45 246.22 -9.45H253.38V0H242.49ZM219.8 -41.4V-50.85H253.38V-41.4H219.8ZM280.1 1.14Q272.5 1.14 266.91 -2.13Q261.32 -5.41 258.26 -11.4Q255.21 -17.39 255.21 -25.42Q255.21 -33.46 258.26 -39.4Q261.32 -45.34 266.85 -48.67Q272.38 -51.99 279.87 -51.99Q287.12 -51.99 292.57 -48.74Q298.02 -45.5 301 -39.4Q303.98 -33.31 303.98 -24.76V-22.03H267.85Q268.21 -15.31 271.5 -11.96Q274.78 -8.61 280.25 -8.61Q284.32 -8.61 287.02 -10.43Q289.71 -12.25 290.8 -15.6L303.25 -14.82Q301.22 -7.45 295.06 -3.15Q288.9 1.14 280.1 1.14ZM267.85 -30.22H291.33Q290.95 -36.41 287.84 -39.4Q284.72 -42.39 279.87 -42.39Q274.97 -42.39 271.78 -39.26Q268.59 -36.13 267.85 -30.22ZM310.17 0V-50.85H321.56L322.01 -36.72L321.02 -36.96Q322.16 -44.28 325.34 -47.56Q328.51 -50.85 333.99 -50.85H338.71V-40.41H333.97Q330.05 -40.41 327.49 -39.26Q324.93 -38.11 323.64 -35.68Q322.36 -33.25 322.36 -29.29V0H310.17Z" fill="#FFFFFF"/></g></g></svg>
